# xmcd CD database file
#
# Track frame offsets:
#	151
#	21880
#	40179
#	67906
#	97739
#	114402
#	133267
#	148934
#	172570
#	202035
#	220680
#	234739
#	254444
#	268597
#	288232
#	299078
#
# Disc length: 4235 seconds
#
# Revision: 2
# Processed by: cddbd v1.5.2PL0 Copyright (c) Steve Scherf et al.
# Submitted via: CDex 1.51
#
DISCID=f1108910
DTITLE=Various Artist - Cuba Legends CD2
DYEAR=2005
DGENRE=Cuban Folk
TTITLE0=Son 14 - Fuego en la maya
TTITLE1=Son 14 - Volveras
TTITLE2=Son 14 - Mulata Santiaguera
TTITLE3=Son 14 - Cubania
TTITLE4=Sgae Omara Portuondo - La era está pariendo un corazon
TTITLE5=Omara Portuondo - Guitarra en son mayor
TTITLE6=Omara Poroundo - Vale la pena vivir
TTITLE7=Son 14 - Que mala corriente
TTITLE8=Son 14 - Musico
TTITLE9=Son 14 - Lluminada
TTITLE10=Celina Gonzales - A la reina del mar
TTITLE11=Celina Gonzales - A Franzisco
TTITLE12=Son 14 - Vengo Porti
TTITLE13=Omara Portuond - Lagrimas negras
TTITLE14=Celina Gonzales - Maria de la luz
TTITLE15=Son 14 - Dura Como Piedra
EXTD=YEAR: 2005
EXTT0=
EXTT1=
EXTT2=
EXTT3=
EXTT4=
EXTT5=
EXTT6=
EXTT7=
EXTT8=
EXTT9=
EXTT10=
EXTT11=
EXTT12=
EXTT13=
EXTT14=
EXTT15=
PLAYORDER=
